HIERARCHY
ROOT hip
{
	OFFSET 0.000000 0.000000 0.000000 
	CHANNELS 6 Xposition Yposition Zposition Xrotation Zrotation Yrotation
	JOINT abdomen
	{
		OFFSET 0.000000 3.402643 0.000000 
		CHANNELS 3 Xrotation Zrotation Yrotation
		JOINT chest
		{
			OFFSET 0.000000 8.438565 -0.680529 
			CHANNELS 3 Xrotation Zrotation Yrotation
			JOINT neck
			{
				OFFSET 0.000000 10.207942 -0.272212 
				CHANNELS 3 Xrotation Zrotation Yrotation
				JOINT head
				{
					OFFSET 0.000000 3.130431 0.000000 
					CHANNELS 3 Xrotation Zrotation Yrotation
					End Site
					{
						OFFSET 0.000000 3.130435 0.000000 
					}
				}
			}
			JOINT lCollar
			{
				OFFSET 3.470700 6.669187 -0.816635 
				CHANNELS 3 Yrotation Zrotation Xrotation
				JOINT lShldr
				{
					OFFSET 3.198488 0.000000 0.000000 
					CHANNELS 3 Zrotation Yrotation Xrotation
					JOINT lForeArm
					{
						OFFSET 10.139888 0.000000 0.000000 
						CHANNELS 3 Yrotation Zrotation Xrotation
						JOINT lHand
						{
							OFFSET 8.370511 0.000000 0.000000 
							CHANNELS 3 Zrotation Yrotation Xrotation
							End Site
							{
								OFFSET 4.083176 0.000000 0.000000 
							}
						}
					}
				}
			}
			JOINT rCollar
			{
				OFFSET -3.470700 6.669187 -0.816635 
				CHANNELS 3 Yrotation Zrotation Xrotation
				JOINT rShldr
				{
					OFFSET -3.198488 0.000000 0.000000 
					CHANNELS 3 Zrotation Yrotation Xrotation
					JOINT rForeArm
					{
						OFFSET -10.139888 0.000000 0.000000 
						CHANNELS 3 Yrotation Zrotation Xrotation
						JOINT rHand
						{
							OFFSET -8.370511 0.000000 0.000000 
							CHANNELS 3 Zrotation Yrotation Xrotation
							End Site
							{
								OFFSET -4.083176 0.000000 0.000000 
							}
						}
					}
				}
			}
		}
	}
	JOINT lThigh
	{
		OFFSET 5.308129 -1.633274 1.361059 
		CHANNELS 3 Xrotation Zrotation Yrotation
		JOINT lShin
		{
			OFFSET -2.041588 -20.007561 0.000000 
			CHANNELS 3 Xrotation Zrotation Yrotation
			JOINT lFoot
			{
				OFFSET 0.000000 -19.190928 -1.224953 
				CHANNELS 3 Xrotation Yrotation Zrotation
				End Site
				{
					OFFSET 0.000000 -2.449906 4.627600 
				}
			}
		}
	}
	JOINT rThigh
	{
		OFFSET -5.308129 -1.633274 1.361059 
		CHANNELS 3 Xrotation Zrotation Yrotation
		JOINT rShin
		{
			OFFSET 2.041588 -20.007561 0.000000 
			CHANNELS 3 Xrotation Zrotation Yrotation
			JOINT rFoot
			{
				OFFSET 0.000000 -19.190928 -1.224953 
				CHANNELS 3 Xrotation Yrotation Zrotation
				End Site
				{
					OFFSET 0.000000 -2.449906 4.627600 
				}
			}
		}
	}
}
MOTION
Frames: 6
Frame Time: 0.011111
41.453861 53.078587 -20.949841 2.709028 2.215214 -9.339213 19.471592 -5.870880 -0.186596 -18.583372 2.125912 0.434690 -14.374425 -9.576888 -6.070989 26.672396 10.276870 -12.874048 -0.892466 -0.957000 1.218467 -66.327583 -30.329636 24.472288 -62.360264 9.410046 13.466113 8.524705 12.647240 -29.388075 -4.058817 0.661413 2.306497 76.084770 23.529846 47.392273 82.184433 -5.283611 23.939840 -8.534408 -12.637552 55.433453 -10.554173 3.944356 -0.953469 24.097494 -5.615419 -4.097170 -19.186762 1.751848 -2.176840 -4.030991 -12.515285 9.868584 24.775961 5.581580 4.161683 -19.081495 -1.682620 2.218309 
41.449928 53.064369 -21.003981 2.563934 2.351895 -9.435407 19.608835 -5.890790 -0.021045 -18.602978 2.203856 0.473692 -14.401841 -9.746598 -5.972755 26.370283 10.410183 -12.720178 -0.892466 -0.957000 1.218467 -66.490540 -30.608971 24.731157 -62.232864 9.405904 13.405740 8.524705 12.647240 -30.550182 -4.058817 0.661413 2.306497 76.035606 23.541811 46.911716 82.388512 -5.152197 24.100035 -8.534408 -12.637552 54.847511 -10.375146 3.825821 -0.800611 23.988400 -5.611012 -4.076952 -19.119755 1.708553 -2.213940 -3.775433 -12.687634 9.787168 24.496630 5.580510 4.106848 -19.019682 -1.776112 2.197579 
41.435108 53.074654 -21.084734 2.533596 2.335780 -9.622832 19.721027 -5.761928 0.220175 -18.602983 2.203366 0.532283 -14.568865 -9.743824 -5.904540 26.023302 10.282290 -12.680017 -0.892466 -0.957000 1.218467 -66.571159 -30.973402 24.994663 -62.222054 9.405474 13.405007 8.524705 12.647240 -31.136122 -4.058817 0.661413 2.306497 75.845634 23.716455 46.776615 82.571938 -5.026843 24.228867 -8.534408 -12.637552 54.593605 -10.375212 3.913757 -0.597762 23.933558 -5.635273 -4.056923 -19.042747 1.671916 -2.213770 -3.630987 -12.671593 9.920515 24.181438 5.599751 4.092300 -19.107462 -1.782433 2.159609 
41.416359 53.115788 -21.159138 2.618546 2.134124 -9.805116 19.670292 -5.344742 0.155649 -18.524729 2.105556 0.475731 -14.534839 -9.379180 -5.791086 25.408604 10.022219 -12.404167 -0.892466 -0.957000 1.218467 -66.404266 -31.192385 25.038254 -62.211384 9.404412 13.394535 8.524705 12.647240 -31.468153 -4.058817 0.661413 2.306497 75.778137 23.758553 47.164387 82.769096 -4.887573 24.378475 -8.534408 -12.637552 54.310406 -10.541737 4.236183 -0.473933 23.875488 -5.625397 -4.049760 -18.964033 1.688016 -2.216101 -3.619879 -12.425294 10.697256 23.959766 5.610063 4.035276 -19.500214 -1.326570 2.290672 
41.401836 53.145428 -21.221443 2.809794 1.820543 -9.903171 19.458111 -4.730000 0.102874 -18.583208 1.921181 0.393814 -14.139742 -9.039725 -5.700637 24.653860 9.860611 -12.138549 -0.892466 -0.957000 1.218467 -66.200150 -31.165730 25.194309 -62.125317 9.398938 13.357902 8.524705 12.647240 -31.888073 -4.058817 0.661413 2.306497 75.846153 23.726208 47.557873 82.860954 -4.824397 24.447027 -8.534408 -12.637552 53.978374 -10.819648 4.686941 -0.478417 23.723492 -5.630328 -4.047249 -18.834883 1.748832 -2.226256 -3.650667 -12.027726 11.023607 23.826698 5.620452 4.034705 -19.600113 -1.080955 2.356874 
41.403656 53.154503 -21.292521 3.049801 1.649534 -9.936027 19.142029 -4.199788 0.086292 -18.710089 1.766118 0.339694 -13.816813 -8.785921 -5.663670 24.101795 9.560764 -12.017361 -0.892466 -0.957000 1.218467 -66.207092 -31.019365 25.150537 -62.308094 9.410707 13.441711 8.524705 12.647240 -32.151741 -4.058817 0.661413 2.306497 75.798912 23.962950 47.979298 82.786255 -4.876365 24.390312 -8.534408 -12.637552 53.812359 -11.129472 4.939690 -0.526721 23.590908 -5.640809 -4.027226 -18.764465 1.803159 -2.206474 -3.748785 -11.795136 10.636523 23.654726 5.629094 4.002007 -19.267729 -1.059090 2.392636 
